<?xml version="1.0" standalone="no"?>
<!DOCTYPE svg PUBLIC "-//W3C//DTD SVG 20010904//EN"
 "http://www.w3.org/TR/2001/REC-SVG-20010904/DTD/svg10.dtd">
<svg version="1.0" xmlns="http://www.w3.org/2000/svg"
 width="1024.000000pt" height="1024.000000pt" viewBox="0 0 1024.000000 1024.000000"
 preserveAspectRatio="xMidYMid meet">
<metadata>
</metadata>
<g transform="translate(0.000000,1024.000000) scale(0.100000,-0.100000)"
fill="#000000" stroke="none">
<path d="M4940 10224 c-60 -12 -83 -17 -127 -28 -10 -3 -49 -17 -88 -32 -38
-14 -95 -35 -125 -45 -30 -11 -62 -22 -70 -26 -8 -3 -19 -7 -25 -9 -5 -1 -156
-57 -335 -124 -179 -67 -347 -128 -375 -137 -27 -8 -54 -18 -60 -23 -5 -4 -35
-15 -65 -25 -30 -10 -68 -23 -85 -30 -45 -19 -68 -28 -85 -31 -8 -2 -23 -7
-35 -12 -19 -9 -53 -22 -255 -95 -52 -19 -104 -38 -115 -43 -11 -4 -22 -8 -25
-9 -3 -1 -12 -5 -20 -8 -8 -4 -100 -38 -205 -76 -104 -38 -214 -79 -242 -90
-29 -11 -53 -18 -53 -15 0 4 -6 2 -12 -4 -7 -5 -49 -22 -93 -37 -44 -16 -111
-41 -150 -57 -38 -15 -78 -28 -87 -28 -9 0 -20 -5 -23 -10 -4 -6 -11 -8 -16
-5 -5 4 -9 1 -9 -4 0 -6 -6 -11 -14 -11 -8 0 -56 -16 -108 -36 -51 -20 -100
-37 -108 -39 -13 -4 -371 -136 -410 -152 -8 -3 -19 -7 -25 -8 -5 -2 -41 -15
-80 -30 -38 -15 -74 -28 -80 -29 -5 -2 -23 -8 -40 -15 -16 -7 -57 -22 -90 -33
-33 -11 -73 -26 -90 -33 -16 -7 -53 -22 -80 -33 -65 -26 -137 -66 -200 -111
-75 -54 -106 -83 -200 -185 -12 -12 -74 -101 -92 -131 -27 -43 -75 -151 -93
-209 -51 -156 -50 -107 -46 -1811 2 -874 6 -1608 9 -1630 10 -73 18 -149 22
-200 2 -27 5 -50 5 -50 2 0 9 -37 15 -85 3 -25 8 -52 10 -60 3 -8 7 -31 10
-50 5 -40 8 -56 30 -155 9 -38 18 -81 21 -93 2 -13 11 -48 19 -78 8 -30 22
-80 30 -111 22 -80 96 -300 138 -408 64 -165 194 -446 210 -453 4 -2 7 -12 7
-22 0 -10 3 -20 8 -22 7 -3 16 -20 73 -128 13 -25 27 -47 32 -48 4 -2 7 -10 7
-18 0 -8 5 -14 10 -14 6 0 10 -7 10 -15 0 -8 5 -15 10 -15 6 0 10 -9 10 -19 0
-11 4 -21 8 -23 7 -2 49 -64 117 -169 36 -56 69 -99 76 -99 5 0 9 -5 9 -11 0
-8 119 -169 140 -189 3 -3 27 -32 55 -65 101 -122 366 -392 480 -490 32 -27
69 -59 82 -70 13 -11 33 -28 46 -37 12 -10 51 -41 87 -69 36 -29 82 -63 103
-77 20 -13 37 -29 37 -33 0 -5 4 -9 10 -9 5 0 48 -27 95 -60 47 -33 88 -60 91
-60 3 0 20 -11 38 -25 18 -14 36 -25 40 -25 5 0 20 -8 34 -19 48 -34 179 -106
312 -173 58 -29 107 -56 108 -60 2 -5 8 -8 14 -8 6 0 72 -30 147 -67 75 -37
139 -67 144 -65 4 1 7 -2 7 -8 0 -5 9 -10 20 -10 11 0 20 -5 20 -11 0 -5 5 -7
10 -4 6 3 10 3 10 -2 0 -7 52 -35 70 -38 14 -3 85 -41 88 -47 2 -5 8 -8 14 -8
10 0 120 -54 748 -363 124 -61 227 -112 230 -113 26 -7 70 -30 70 -36 0 -4 5
-8 11 -8 6 0 46 -18 90 -39 43 -22 79 -38 79 -36 0 2 17 -3 37 -11 67 -28 141
-39 263 -39 143 1 244 25 360 86 25 12 51 24 58 25 8 1 21 9 30 17 10 7 52 29
95 47 42 19 77 37 77 42 0 4 9 8 20 8 11 0 20 5 20 12 0 6 3 9 6 6 3 -3 69 26
147 64 78 39 275 136 437 215 162 80 383 188 490 241 107 53 198 96 203 94 4
-1 7 3 7 10 0 6 3 9 6 5 3 -3 11 -1 18 4 13 12 194 99 203 98 3 0 9 3 12 8 3
4 26 18 51 31 25 12 65 34 90 49 25 14 54 31 65 37 44 25 170 101 175 106 3 3
46 32 95 65 103 68 256 182 267 199 4 6 8 7 8 3 0 -5 6 -2 13 5 8 7 33 29 57
48 24 19 54 44 67 55 12 11 51 45 85 75 79 70 327 318 394 396 228 261 447
575 589 839 86 161 114 215 109 215 -2 0 2 10 10 23 23 35 127 274 140 322 4
14 25 66 36 90 9 19 78 235 85 265 2 8 15 56 29 105 14 50 27 101 30 115 2 14
9 45 15 70 18 71 20 82 26 120 3 20 8 47 10 60 13 61 18 97 19 123 1 15 4 27
7 27 3 0 5 11 4 25 -2 14 0 25 3 25 4 0 8 19 8 43 1 23 4 62 7 87 3 25 10 88
14 140 10 117 11 3209 1 3265 -25 142 -100 332 -154 396 -8 8 -14 19 -14 22 0
4 -7 15 -15 25 -9 9 -31 36 -49 59 -19 23 -36 40 -39 37 -3 -3 -8 3 -12 13 -3
10 -29 36 -56 58 -27 22 -54 45 -62 51 -15 13 -93 63 -127 82 -40 23 -180 82
-180 76 0 -2 -10 2 -22 10 -19 11 -57 24 -88 30 -3 1 -12 6 -20 11 -8 5 -23
11 -34 12 -10 2 -33 10 -50 17 -17 8 -58 24 -91 35 -33 12 -67 25 -75 28 -8 3
-18 7 -22 8 -5 2 -10 4 -13 5 -3 1 -8 3 -12 5 -5 1 -17 5 -28 9 -11 4 -42 16
-70 26 -27 10 -86 32 -130 48 -188 71 -251 94 -265 97 -8 2 -46 15 -85 30
-138 54 -169 66 -415 155 -107 39 -231 84 -275 101 -44 17 -91 34 -105 39 -29
10 -185 68 -215 80 -72 29 -261 95 -267 92 -5 -1 -8 2 -8 8 0 5 -9 10 -20 10
-11 0 -28 4 -38 10 -27 15 -245 93 -259 93 -7 0 -13 4 -13 9 0 4 -8 8 -18 8
-10 0 -23 5 -30 12 -7 7 -12 9 -12 5 0 -4 -10 -2 -22 5 -13 6 -32 13 -43 15
-11 2 -24 8 -29 13 -6 6 -18 10 -28 10 -10 0 -26 4 -36 10 -20 11 -129 52
-137 50 -3 0 -18 6 -34 14 -16 9 -31 12 -35 9 -3 -4 -6 -1 -6 5 0 7 -3 11 -7
10 -5 0 -17 2 -28 6 -11 4 -51 19 -90 33 -38 13 -79 28 -90 33 -11 5 -47 18
-80 30 -33 11 -67 23 -75 27 -8 3 -19 7 -25 9 -5 1 -48 17 -95 34 -95 35 -192
66 -230 74 -14 3 -36 8 -50 11 -50 13 -294 13 -360 -1z"/>
</g>
</svg>
