<svg width="40" height="40" viewBox="0 0 40 40" fill="none" xmlns="http://www.w3.org/2000/svg">
<path d="M40 4.72847V14.3305C40 14.9672 39.7663 15.5777 39.3503 16.0279C38.9344 16.4781 38.3702 16.731 37.7819 16.731H28.9094C28.3211 16.731 27.757 16.4781 27.341 16.0279C26.925 15.5777 26.6913 14.9672 26.6913 14.3305C26.6913 13.6939 26.925 13.0833 27.341 12.6331C27.757 12.1829 28.3211 11.93 28.9094 11.93H32.4214L29.9261 9.24943C28.6231 7.8377 27.0758 6.71777 25.3726 5.95365C23.6694 5.18954 21.8437 4.79624 20 4.79624C18.1563 4.79624 16.3306 5.18954 14.6274 5.95365C12.9242 6.71777 11.3769 7.8377 10.0739 9.24943C9.65307 9.69181 9.08947 9.93926 8.50277 9.93926C7.91607 9.93926 7.35247 9.69181 6.93161 9.24943C6.72482 9.02642 6.56075 8.76142 6.44879 8.46963C6.33684 8.17785 6.27921 7.86501 6.27921 7.54907C6.27921 7.23313 6.33684 6.9203 6.44879 6.62851C6.56075 6.33672 6.72482 6.07172 6.93161 5.84871C10.4003 2.10338 15.1001 0 20 0C24.8999 0 29.5997 2.10338 33.0684 5.84871L35.5638 8.52928V4.72847C35.5638 4.09181 35.7975 3.48123 36.2134 3.03105C36.6294 2.58087 37.1936 2.32796 37.7819 2.32796C38.3702 2.32796 38.9344 2.58087 39.3503 3.03105C39.7663 3.48123 40 4.09181 40 4.72847ZM29.9261 30.734C28.6231 32.1457 27.0758 33.2657 25.3726 34.0298C23.6694 34.7939 21.8437 35.1872 20 35.1872C18.1563 35.1872 16.3306 34.7939 14.6274 34.0298C12.9242 33.2657 11.3769 32.1457 10.0739 30.734L7.57856 28.0534H11.0906C11.6789 28.0534 12.243 27.8005 12.659 27.3503C13.075 26.9002 13.3087 26.2896 13.3087 25.6529C13.3087 25.0163 13.075 24.4057 12.659 23.9555C12.243 23.5053 11.6789 23.2524 11.0906 23.2524H2.21811C1.62983 23.2524 1.06565 23.5053 0.649671 23.9555C0.233694 24.4057 0 25.0163 0 25.6529V35.255C0 35.8916 0.233694 36.5022 0.649671 36.9524C1.06565 37.4026 1.62983 37.6555 2.21811 37.6555C2.8064 37.6555 3.37058 37.4026 3.78656 36.9524C4.20254 36.5022 4.43623 35.8916 4.43623 35.255V31.4542L6.93161 34.1347C8.64672 35.994 10.6838 37.4691 12.9262 38.4755C15.1686 39.482 17.5724 40 20 40C22.4276 40 24.8314 39.482 27.0738 38.4755C29.3162 37.4691 31.3533 35.994 33.0684 34.1347C33.2752 33.9117 33.4393 33.6467 33.5512 33.3549C33.6632 33.0631 33.7208 32.7503 33.7208 32.4344C33.7208 32.1184 33.6632 31.8056 33.5512 31.5138C33.4393 31.222 33.2752 30.957 33.0684 30.734C32.6475 30.2916 32.0839 30.0442 31.4972 30.0442C30.9105 30.0442 30.3469 30.2916 29.9261 30.734Z" fill="white"/>
</svg>
