<svg width="184" height="200" viewBox="0 0 184 200" fill="none" xmlns="http://www.w3.org/2000/svg">
<path d="M22 136H8C5.87827 136 3.84344 136.843 2.34315 138.343C0.842856 139.843 0 141.878 0 144V192C0 194.122 0.842856 196.156 2.34315 197.657C3.84344 199.157 5.87827 200 8 200H22C30.4869 200 38.6263 196.628 44.6274 190.627C50.6286 184.626 54 176.487 54 168C54 159.513 50.6286 151.374 44.6274 145.372C38.6263 139.371 30.4869 136 22 136ZM22 184H16V152H22C26.2435 152 30.3131 153.686 33.3137 156.686C36.3143 159.687 38 163.756 38 168C38 172.243 36.3143 176.313 33.3137 179.314C30.3131 182.314 26.2435 184 22 184ZM94 136C77.5 136 64 150.4 64 168C64 185.6 77.5 200 94 200C110.5 200 124 185.6 124 168C124 150.4 110.5 136 94 136ZM94 184C86.3 184 80 176.8 80 168C80 159.2 86.3 152 94 152C101.7 152 108 159.2 108 168C108 176.8 101.7 184 94 184ZM181.9 181.2C183.332 182.765 184.083 184.834 183.99 186.953C183.896 189.072 182.964 191.067 181.4 192.5C176.068 197.288 169.166 199.956 162 200C145.5 200 132 185.6 132 168C132 150.4 145.5 136 162 136C169.166 136.043 176.068 138.712 181.4 143.5C182.964 144.932 183.896 146.927 183.99 149.046C184.083 151.165 183.332 153.235 181.9 154.8C181.205 155.593 180.358 156.239 179.41 156.7C178.461 157.161 177.43 157.427 176.377 157.483C175.323 157.539 174.27 157.384 173.278 157.026C172.285 156.668 171.375 156.115 170.6 155.4C168.252 153.243 165.188 152.031 162 152C154.3 152 148 159.2 148 168C148 176.8 154.3 184 162 184C165.188 183.968 168.252 182.757 170.6 180.6C171.375 179.885 172.285 179.332 173.278 178.974C174.27 178.616 175.323 178.461 176.377 178.517C177.43 178.573 178.461 178.839 179.41 179.3C180.358 179.76 181.205 180.407 181.9 181.2ZM12 112C14.1217 112 16.1566 111.157 17.6569 109.657C19.1571 108.156 20 106.122 20 104V15.9999H108V63.9999C108 66.1216 108.843 68.1564 110.343 69.6567C111.843 71.157 113.878 71.9999 116 71.9999H164V104C164 106.122 164.843 108.156 166.343 109.657C167.843 111.157 169.878 112 172 112C174.122 112 176.157 111.157 177.657 109.657C179.157 108.156 180 106.122 180 104V63.9999C180.01 62.9364 179.802 61.8821 179.389 60.9018C178.976 59.9216 178.368 59.0362 177.6 58.2999L121.7 2.29988C120.176 0.814104 118.128 -0.0121148 116 -0.00011524H20C15.7565 -0.00011524 11.6869 1.68559 8.68629 4.68618C5.68571 7.68676 4 11.7564 4 15.9999V104C4 106.122 4.84286 108.156 6.34315 109.657C7.84344 111.157 9.87827 112 12 112ZM124 27.2999L152.7 55.9999H124V27.2999Z" fill="black"/>
</svg>
