<svg width="184" height="200" viewBox="0 0 184 200" fill="none" xmlns="http://www.w3.org/2000/svg">
<path d="M8 112C10.1217 112 12.1566 111.157 13.6569 109.657C15.1571 108.156 16 106.122 16 104V15.9999H104V63.9999C104 66.1216 104.843 68.1564 106.343 69.6567C107.843 71.157 109.878 71.9999 112 71.9999H160V104C160 106.122 160.843 108.156 162.343 109.657C163.843 111.157 165.878 112 168 112C170.122 112 172.157 111.157 173.657 109.657C175.157 108.156 176 106.122 176 104V63.9999C176.016 62.9355 175.811 61.8794 175.397 60.8983C174.984 59.9173 174.372 59.0325 173.6 58.2999L117.7 2.29988C116.176 0.814104 114.128 -0.0121148 112 -0.00011524H16C11.7565 -0.00011524 7.68687 1.68559 4.68629 4.68618C1.68571 7.68676 0 11.7564 0 15.9999V104C0 106.122 0.842856 108.156 2.34315 109.657C3.84344 111.157 5.87827 112 8 112ZM120 27.2999L148.7 55.9999H120V27.2999ZM24 136H8C5.87827 136 3.84344 136.843 2.34315 138.343C0.842856 139.843 0 141.878 0 144V192C0 194.122 0.842856 196.156 2.34315 197.657C3.84344 199.157 5.87827 200 8 200C10.1217 200 12.1566 199.157 13.6569 197.657C15.1571 196.156 16 194.122 16 192V184H24C30.3652 184 36.4697 181.471 40.9706 176.97C45.4714 172.47 48 166.365 48 160C48 153.635 45.4714 147.53 40.9706 143.029C36.4697 138.528 30.3652 136 24 136ZM24 168H16V152H24C26.1217 152 28.1566 152.843 29.6569 154.343C31.1571 155.843 32 157.878 32 160C32 162.122 31.1571 164.156 29.6569 165.657C28.1566 167.157 26.1217 168 24 168ZM156 152V164H172C174.122 164 176.157 164.843 177.657 166.343C179.157 167.843 180 169.878 180 172C180 174.122 179.157 176.156 177.657 177.657C176.157 179.157 174.122 180 172 180H156V192C156 194.122 155.157 196.156 153.657 197.657C152.157 199.157 150.122 200 148 200C145.878 200 143.843 199.157 142.343 197.657C140.843 196.156 140 194.122 140 192V144C140 141.878 140.843 139.843 142.343 138.343C143.843 136.843 145.878 136 148 136H176C178.122 136 180.157 136.843 181.657 138.343C183.157 139.843 184 141.878 184 144C184 146.122 183.157 148.156 181.657 149.657C180.157 151.157 178.122 152 176 152H156ZM88 136H74C71.8783 136 69.8434 136.843 68.3431 138.343C66.8429 139.843 66 141.878 66 144V192C66 194.122 66.8429 196.156 68.3431 197.657C69.8434 199.157 71.8783 200 74 200H88C96.4869 200 104.626 196.628 110.627 190.627C116.629 184.626 120 176.487 120 168C120 159.513 116.629 151.374 110.627 145.372C104.626 139.371 96.4869 136 88 136ZM88 184H82V152H88C92.2435 152 96.3131 153.686 99.3137 156.686C102.314 159.687 104 163.756 104 168C104 172.243 102.314 176.313 99.3137 179.314C96.3131 182.314 92.2435 184 88 184Z" fill="black"/>
</svg>
