<svg width="16" height="16" viewBox="0 0 16 16" fill="none" xmlns="http://www.w3.org/2000/svg">
<mask id="path-1-inside-1_18_2848" fill="white">
<path d="M8 0C9.06087 0 10.0783 0.421427 10.8284 1.17157C11.5786 1.92172 12 2.93913 12 4C12 5.06087 11.5786 6.07828 10.8284 6.82843C10.0783 7.57857 9.06087 8 8 8C6.93913 8 5.92172 7.57857 5.17157 6.82843C4.42143 6.07828 4 5.06087 4 4C4 2.93913 4.42143 1.92172 5.17157 1.17157C5.92172 0.421427 6.93913 0 8 0ZM8 10C12.42 10 16 11.79 16 14V16H0V14C0 11.79 3.58 10 8 10Z"/>
</mask>
<path d="M12 4H13.5H12ZM8 8V9.5V8ZM4 4H2.5H4ZM16 16V17.5H17.5V16H16ZM0 16H-1.5V17.5H0V16ZM8 1.5C8.66304 1.5 9.29893 1.76339 9.76777 2.23223L11.8891 0.110913C10.8576 -0.920538 9.45869 -1.5 8 -1.5V1.5ZM9.76777 2.23223C10.2366 2.70107 10.5 3.33696 10.5 4H13.5C13.5 2.54131 12.9205 1.14236 11.8891 0.110913L9.76777 2.23223ZM10.5 4C10.5 4.66304 10.2366 5.29893 9.76777 5.76777L11.8891 7.88909C12.9205 6.85764 13.5 5.45869 13.5 4H10.5ZM9.76777 5.76777C9.29893 6.23661 8.66304 6.5 8 6.5V9.5C9.45869 9.5 10.8576 8.92054 11.8891 7.88909L9.76777 5.76777ZM8 6.5C7.33696 6.5 6.70107 6.23661 6.23223 5.76777L4.11091 7.88909C5.14236 8.92054 6.54131 9.5 8 9.5V6.5ZM6.23223 5.76777C5.76339 5.29893 5.5 4.66304 5.5 4H2.5C2.5 5.45869 3.07946 6.85764 4.11091 7.88909L6.23223 5.76777ZM5.5 4C5.5 3.33696 5.76339 2.70107 6.23223 2.23223L4.11091 0.110913C3.07946 1.14236 2.5 2.54131 2.5 4H5.5ZM6.23223 2.23223C6.70107 1.76339 7.33696 1.5 8 1.5V-1.5C6.54131 -1.5 5.14236 -0.920538 4.11091 0.110913L6.23223 2.23223ZM8 11.5C10.0278 11.5 11.7885 11.9138 12.9867 12.5129C14.2742 13.1566 14.5 13.7689 14.5 14H17.5C17.5 12.0211 15.9358 10.6334 14.3283 9.82961C12.6315 8.9812 10.3922 8.5 8 8.5V11.5ZM14.5 14V16H17.5V14H14.5ZM16 14.5H0V17.5H16V14.5ZM1.5 16V14H-1.5V16H1.5ZM1.5 14C1.5 13.7689 1.72581 13.1566 3.01332 12.5129C4.2115 11.9138 5.97218 11.5 8 11.5V8.5C5.60782 8.5 3.3685 8.9812 1.67168 9.82961C0.0641918 10.6334 -1.5 12.0211 -1.5 14H1.5Z" fill="#010101" fill-opacity="0.8" mask="url(#path-1-inside-1_18_2848)"/>
</svg>
