<svg width="20" height="20" viewBox="0 0 20 20" fill="none" xmlns="http://www.w3.org/2000/svg">
<path d="M12.0826 5.07607C11.909 5.25311 11.8118 5.49114 11.8118 5.73906C11.8118 5.98697 11.909 6.225 12.0826 6.40204L13.598 7.91743C13.775 8.09097 14.013 8.18818 14.2609 8.18818C14.5089 8.18818 14.7469 8.09097 14.9239 7.91743L18.4946 4.34679C18.9708 5.39922 19.115 6.5718 18.908 7.70826C18.7009 8.84472 18.1524 9.89109 17.3356 10.7079C16.5187 11.5247 15.4724 12.0732 14.3359 12.2803C13.1994 12.4874 12.0269 12.3432 10.9744 11.8669L4.42983 18.4115C4.05304 18.7883 3.54201 19 3.00915 19C2.47629 19 1.96525 18.7883 1.58847 18.4115C1.21168 18.0347 1 17.5237 1 16.9909C1 16.458 1.21168 15.947 1.58847 15.5702L8.13307 9.02557C7.65683 7.97314 7.51263 6.80056 7.71969 5.66409C7.92676 4.52763 8.47525 3.48127 9.29208 2.66444C10.1089 1.84761 11.1553 1.29911 12.2917 1.09205C13.4282 0.884979 14.6008 1.02918 15.6532 1.50542L12.092 5.0666L12.0826 5.07607Z" stroke="#010101" stroke-opacity="0.8" stroke-width="1.5" stroke-linecap="round" stroke-linejoin="round"/>
</svg>
