<svg width="176" height="200" viewBox="0 0 176 200" fill="none" xmlns="http://www.w3.org/2000/svg">
<path d="M176 63.9999C176.01 62.9364 175.802 61.8821 175.389 60.9018C174.976 59.9216 174.368 59.0362 173.6 58.2999L117.7 2.29988C116.176 0.814104 114.128 -0.0121148 112 -0.00011524H16C11.7565 -0.00011524 7.68687 1.68559 4.68629 4.68618C1.68571 7.68676 0 11.7564 0 15.9999V104C0 106.122 0.842856 108.156 2.34315 109.657C3.84344 111.157 5.87827 112 8 112C10.1217 112 12.1566 111.157 13.6569 109.657C15.1571 108.156 16 106.122 16 104V15.9999H104V63.9999C104 66.1216 104.843 68.1564 106.343 69.6567C107.843 71.157 109.878 71.9999 112 71.9999H160V104C160 106.122 160.843 108.156 162.343 109.657C163.843 111.157 165.878 112 168 112C170.122 112 172.157 111.157 173.657 109.657C175.157 108.156 176 106.122 176 104V63.9999ZM120 27.2999L148.7 55.9999H120V27.2999ZM144 136H128C125.878 136 123.843 136.843 122.343 138.343C120.843 139.843 120 141.878 120 144V192C120 194.122 120.843 196.156 122.343 197.657C123.843 199.157 125.878 200 128 200C130.122 200 132.157 199.157 133.657 197.657C135.157 196.156 136 194.122 136 192V184H144C150.365 184 156.47 181.471 160.971 176.97C165.471 172.47 168 166.365 168 160C168 153.635 165.471 147.53 160.971 143.029C156.47 138.528 150.365 136 144 136ZM144 168H136V152H144C146.122 152 148.157 152.843 149.657 154.343C151.157 155.843 152 157.878 152 160C152 162.122 151.157 164.156 149.657 165.657C148.157 167.157 146.122 168 144 168ZM96 144V192C96 194.122 95.1572 196.156 93.6569 197.657C92.1566 199.157 90.1217 200 88 200C85.8783 200 83.8434 199.157 82.3431 197.657C80.8429 196.156 80 194.122 80 192V144C80 141.878 80.8429 139.843 82.3431 138.343C83.8434 136.843 85.8783 136 88 136C90.1217 136 92.1566 136.843 93.6569 138.343C95.1572 139.843 96 141.878 96 144ZM56 192C56 194.122 55.1571 196.156 53.6569 197.657C52.1566 199.157 50.1217 200 48 200H16C14.5467 200.011 13.1178 199.626 11.8669 198.886C10.616 198.146 9.59032 197.079 8.9 195.8C8.24996 194.516 7.94504 193.085 8.01517 191.647C8.08529 190.209 8.52806 188.815 9.3 187.6L33.1 152H16C13.8783 152 11.8434 151.157 10.3431 149.657C8.84286 148.156 8 146.122 8 144C8 141.878 8.84286 139.843 10.3431 138.343C11.8434 136.843 13.8783 136 16 136H48C49.4533 135.989 50.8822 136.374 52.1331 137.114C53.384 137.854 54.4097 138.921 55.1 140.2C55.75 141.484 56.055 142.915 55.9848 144.353C55.9147 145.79 55.4719 147.185 54.7 148.4L30.9 184H48C50.1217 184 52.1566 184.843 53.6569 186.343C55.1571 187.843 56 189.878 56 192Z" fill="black"/>
</svg>
