<svg width="636" height="104" viewBox="0 0 636 104" fill="none" xmlns="http://www.w3.org/2000/svg">
<path d="M441.774 18.6995C441.774 23.3955 438.316 27.2605 433.625 27.2605H425.469C420.77 27.2504 417.324 23.3855 417.324 18.6895V11.9407C417.324 6.69403 422.196 2.8291 427.308 2.8291H434.211C439.322 2.8291 441.774 6.69403 441.774 11.9407V18.6995Z" fill="#FF3E80"/>
<path fill-rule="evenodd" clip-rule="evenodd" d="M46.8258 21.4078V48.8727H46.5452C44.471 38.6599 39.0905 32.3117 27.0669 32.3117H24.9928C10.4942 32.3117 1.92725 42.5245 1.92725 61.2988V72.3428C1.92725 91.3872 9.66251 101.88 24.1611 101.88H26.3855C37.8481 101.88 43.7899 94.8415 46.5552 85.8702H46.8258V93.327C46.8258 98.0228 50.2825 101.888 54.972 101.888H63.1282C67.8272 101.878 71.274 98.0127 71.274 93.317V21.4078C71.274 16.1611 67.6869 12.2961 62.577 12.2961H55.6735C50.5631 12.2961 46.8258 16.1611 46.8258 21.4078ZM25.0079 67.1163C25.0079 75.3966 28.4647 78.8513 36.7511 78.8513C45.0376 78.8513 48.4944 75.3966 48.4944 67.1163C48.4944 58.8356 45.0376 55.3812 36.7511 55.3812C28.4647 55.3812 25.0079 58.8356 25.0079 67.1163Z" fill="#FF3E80"/>
<path fill-rule="evenodd" clip-rule="evenodd" d="M76.5928 62.8271V71.3878C76.5928 90.0216 88.4663 101.887 108.496 101.887H114.297C134.327 101.887 146.2 90.0216 146.2 71.3878V62.8271C146.2 44.1934 134.327 32.3281 114.297 32.3281H108.496C88.4763 32.3281 76.5928 44.1934 76.5928 62.8271ZM111.402 78.8373C103.115 78.8373 99.6584 75.383 99.6584 67.1026C99.6584 58.8219 103.115 55.3676 111.402 55.3676C119.688 55.3676 123.144 58.8219 123.144 67.1026C123.144 75.383 119.688 78.8373 111.402 78.8373Z" fill="#FF3E80"/>
<path d="M441.774 93.3137V41.7086C441.774 36.4544 438.035 32.584 432.924 32.584H426.02C420.913 32.584 417.324 36.4544 417.324 41.7086V93.3037C417.324 98.0065 420.77 101.877 425.469 101.887H433.625C438.316 101.887 441.774 98.0165 441.774 93.3137Z" fill="#FF3E80"/>
<path d="M342.698 42.9839C341.041 38.1666 344.107 32.3183 349.73 32.3182L355.194 32.3193C359.529 32.3195 363.752 32.3197 365.98 38.7118L375.58 66.6135C377.192 71.2985 377.706 74.915 377.647 77.7037H377.868C377.81 74.915 378.323 71.2985 379.935 66.6135L389.537 38.7118C391.765 32.3197 395.985 32.3195 400.322 32.3193L405.784 32.3181C411.407 32.3182 414.476 38.1666 412.818 42.9839L411.912 45.8501L396.895 89.4858C394.205 97.5673 388.454 101.887 379.928 101.887H375.596C367.069 101.887 361.321 97.5673 358.631 89.4858L342.698 42.9839Z" fill="#FF3E80"/>
<path fill-rule="evenodd" clip-rule="evenodd" d="M313.486 48.8793H313.767V41.0978C313.767 36.4019 317.224 32.3394 321.913 32.3394H330.069C334.769 32.3494 338.215 36.412 338.215 41.1078V93.0458C338.215 97.742 334.768 101.607 330.069 101.617H321.913C317.224 101.617 313.767 97.752 313.767 93.0558V85.8767H313.496C310.731 94.8481 304.789 101.887 293.326 101.887H291.102C276.603 101.887 268.868 91.3938 268.868 72.3494V61.3054C268.868 42.5315 277.435 32.3184 291.934 32.3184H294.008C306.032 32.3184 311.412 38.6665 313.486 48.8793ZM292.054 67.1664C292.054 75.4467 295.511 78.9014 303.797 78.9014C312.083 78.9014 315.54 75.4467 315.54 67.1664C315.54 58.8857 312.083 55.4313 303.797 55.4313C295.511 55.4313 292.054 58.8857 292.054 67.1664Z" fill="#FF3E80"/>
<path fill-rule="evenodd" clip-rule="evenodd" d="M608.98 48.8797H608.702C606.629 38.6665 601.248 32.3184 589.221 32.3184H587.148C572.651 32.3184 564.082 42.5314 564.082 61.3054V72.3494C564.082 91.3937 571.818 101.887 586.315 101.887H588.543C600.003 101.887 605.946 94.848 608.71 85.8767H608.98V93.0558C608.98 97.752 612.437 101.617 617.128 101.617H625.285C629.983 101.607 633.429 97.742 633.429 93.0458V41.1078C633.429 36.412 629.983 32.3494 625.285 32.3394H617.128C612.437 32.3394 608.98 36.4019 608.98 41.0978V48.8797ZM599.012 78.9014C590.725 78.9014 587.267 75.4467 587.267 67.1663C587.267 58.8856 590.725 55.4313 599.012 55.4313C607.299 55.4313 610.757 58.8856 610.757 67.1663C610.757 75.4467 607.299 78.9014 599.012 78.9014Z" fill="#FF3E80"/>
<path d="M247.118 20.8794C247.118 16.1888 243.509 12.2966 238.997 12.2966H231.678C227.065 12.2966 223.255 16.1888 223.255 20.8794V32.297H219.486C214.376 32.297 210.919 36.0218 210.919 40.5777V47.2302C210.919 51.7862 214.095 55.5109 220.037 55.5109H223.255L223.363 72.3497C223.363 91.394 231.098 101.887 245.597 101.887H255.709C260.959 101.887 264.827 98.466 264.827 93.7875L264.768 86.8226C264.768 82.1445 260.784 78.8604 255.65 78.8604C247.989 78.8604 247.26 75.7455 247.06 68.7077L247.118 55.5109H255.65C261.592 55.5109 264.768 51.7862 264.768 47.2302V40.5777C264.768 36.0218 261.311 32.297 256.201 32.297H247.118V20.8794Z" fill="#FF3E80"/>
<path d="M534.286 12.2966C538.796 12.2966 542.408 16.1888 542.408 20.8794V32.2971H551.489C556.6 32.2971 560.058 36.0218 560.058 40.5777V47.2302C560.058 51.7862 556.882 55.5109 550.938 55.5109H542.408L542.35 68.7077C542.551 75.7455 543.279 78.8604 550.938 78.8604C556.072 78.8604 560.058 82.1445 560.058 86.8226L560.116 93.7879C560.116 98.466 556.246 101.887 550.996 101.887H540.885C526.385 101.887 518.652 91.394 518.652 72.3497L518.544 55.5109H515.326C509.382 55.5109 506.206 51.7862 506.206 47.2302V40.5777C506.206 36.0218 509.664 32.2971 514.775 32.2971H518.544V20.8794C518.544 16.1888 522.353 12.2966 526.967 12.2966H534.286Z" fill="#FF3E80"/>
<path d="M169.757 69.1029C157.767 66.3115 150.352 61.3503 150.352 50.8062C150.352 38.661 159.754 32.1816 175.638 32.1816L186.167 32.1886H197.652C203.584 32.1886 206.756 35.9289 206.756 40.5037V47.0191C206.756 51.5939 203.584 55.3341 197.652 55.3341L184.039 55.2852C181.399 55.2852 179.966 56.1538 179.471 58.1617C178.472 62.2173 184.264 63.5909 190.168 64.9656C202.077 67.7386 209.601 72.7186 209.601 83.2627C209.601 95.4076 200.199 101.887 184.315 101.887L173.786 101.88H160.687C154.755 101.88 151.584 98.1401 151.584 93.5653V87.0498C151.584 82.475 154.755 78.7345 160.687 78.7345L175.914 78.7838C178.555 78.7838 179.987 77.9152 180.482 75.9072C181.482 71.8516 175.661 70.4776 169.757 69.1029Z" fill="#FF3E80"/>
<path d="M465.197 69.1035C453.21 66.3116 445.793 61.3505 445.793 50.8064C445.793 38.6615 455.195 32.1819 471.079 32.1819L481.61 32.1889H493.093C499.025 32.1889 502.197 35.9292 502.197 40.5038V47.0193C502.197 51.5941 499.025 55.3346 493.093 55.3346L479.482 55.2853C476.842 55.2853 475.408 56.1539 474.911 58.1619C473.912 62.2175 479.706 63.5915 485.611 64.9662C497.518 67.7388 505.042 72.7188 505.042 83.2629C505.042 95.4081 495.64 101.887 479.756 101.887L469.225 101.88H456.127C450.195 101.88 447.023 98.1403 447.023 93.5654V87.05C447.023 82.4752 450.195 78.735 456.127 78.735L471.357 78.7839C473.997 78.7839 475.427 77.9153 475.924 75.9074C476.923 71.8518 471.102 70.4782 465.197 69.1035Z" fill="#FF3E80"/>
</svg>
