<svg width="110" height="48" viewBox="0 0 133 48" fill="none" xmlns="http://www.w3.org/2000/svg">
<path d="M23.3739 0.17347C22.3776 -0.0968005 21.3201 -0.0503083 20.3522 0.306314L3.18356 6.64664L2.8083 6.80364C1.96825 7.19485 1.25832 7.81299 0.761145 8.58611C0.263972 9.35922 1.42624e-05 10.2555 0 11.1706V24.1242L0.0122636 24.8488C0.14466 28.7607 1.34709 32.5648 3.49261 35.8595C5.63813 39.1543 8.64715 41.8174 12.202 43.5679L20.4283 47.6184L20.7814 47.7682C21.2553 47.9436 21.7609 48.0209 22.2665 47.9952C22.772 47.9694 23.2668 47.8411 23.7197 47.6184L31.946 43.5679L32.5984 43.2321C36.092 41.3661 39.0091 38.6057 41.042 35.2426C43.0748 31.8794 44.1479 28.0381 44.148 24.1242V11.1706L44.1308 10.7721C44.0543 9.85962 43.716 8.98737 43.1554 8.25697C42.5948 7.52657 41.835 6.9681 40.9645 6.64664L23.7958 0.306314L23.3739 0.17347Z" fill="#286CEB"/>
<path d="M28.5844 29.2009C28.5844 30.3529 28.2968 31.3495 27.7217 32.1906C27.1467 33.0317 26.3119 33.6809 25.2173 34.138C24.1414 34.5952 22.8521 34.8237 21.3494 34.8237C20.626 34.8237 19.9303 34.778 19.2624 34.6866C18.6132 34.6135 17.9917 34.4946 17.3981 34.33C16.823 34.1655 16.285 33.9643 15.7841 33.7266V30.4352C16.6189 30.8009 17.5372 31.1392 18.539 31.45C19.5407 31.7426 20.561 31.8889 21.5999 31.8889C22.3976 31.8889 23.0469 31.7883 23.5477 31.5872C24.0672 31.3677 24.4475 31.0752 24.6886 30.7095C24.9298 30.3255 25.0504 29.8866 25.0504 29.3929C25.0504 28.8443 24.8927 28.378 24.5773 27.994C24.262 27.61 23.7982 27.2535 23.186 26.9243C22.5738 26.5952 21.8132 26.2477 20.9042 25.882C20.292 25.626 19.6891 25.3426 19.0955 25.0317C18.5204 24.7026 18.001 24.3095 17.5372 23.8523C17.0734 23.3952 16.7024 22.8557 16.4241 22.234C16.1459 21.6123 16.0067 20.8809 16.0067 20.0397C16.0067 18.9243 16.2757 17.9643 16.8137 17.1597C17.3702 16.3552 18.1401 15.7426 19.1233 15.322C20.1251 14.9015 21.2845 14.6912 22.6016 14.6912C23.6591 14.6912 24.6515 14.8009 25.5791 15.0203C26.5066 15.2397 27.4249 15.5506 28.3339 15.9529L27.193 18.778C26.3768 18.4306 25.5884 18.1563 24.8278 17.9552C24.0672 17.754 23.288 17.6535 22.4903 17.6535C21.8596 17.6535 21.3216 17.754 20.8764 17.9552C20.4312 18.138 20.0972 18.4032 19.8746 18.7506C19.652 19.098 19.5407 19.5003 19.5407 19.9575C19.5407 20.4877 19.6798 20.9357 19.9581 21.3015C20.2364 21.6672 20.6631 22.0146 21.2381 22.3437C21.8318 22.6546 22.5924 23.0112 23.5199 23.4135C24.5959 23.8706 25.5049 24.346 26.2469 24.8397C26.989 25.3335 27.5641 25.9277 27.9722 26.6226C28.3803 27.3175 28.5844 28.1769 28.5844 29.2009Z" fill="white"/>
<path d="M60.2982 27.9835C60.2982 28.7937 60.0991 29.4836 59.701 30.0533C59.3028 30.6229 58.7313 31.066 57.9864 31.3825C57.2415 31.6863 56.3553 31.8382 55.3279 31.8382C54.827 31.8382 54.3454 31.8066 53.883 31.7433C53.4207 31.6927 52.9905 31.6167 52.5923 31.5154C52.1942 31.4142 51.841 31.2876 51.5328 31.1357V29.1988C52.0465 29.4266 52.6501 29.6355 53.3436 29.8254C54.0372 30.0026 54.7435 30.0913 55.4627 30.0913C56.0792 30.0913 56.5929 30.009 57.0039 29.8444C57.4149 29.6798 57.7231 29.452 57.9286 29.1608C58.1341 28.8696 58.2368 28.5278 58.2368 28.1354C58.2368 27.7176 58.1277 27.3695 57.9093 27.091C57.7039 26.7998 57.3764 26.534 56.9269 26.2935C56.4902 26.0403 55.8994 25.7744 55.1545 25.4959C54.6408 25.306 54.172 25.0971 53.7482 24.8693C53.3372 24.6287 52.9712 24.3502 52.6501 24.0338C52.3419 23.7173 52.1043 23.3502 51.9373 22.9324C51.7704 22.5146 51.6869 22.0273 51.6869 21.4702C51.6869 20.7233 51.8731 20.084 52.2456 19.5524C52.6309 19.0207 53.1574 18.6156 53.8253 18.3371C54.4931 18.0459 55.2701 17.9003 56.1563 17.9003C56.9012 17.9003 57.5883 17.9763 58.2176 18.1282C58.8597 18.2674 59.4698 18.4636 60.0477 18.7168L59.3927 20.4069C58.8662 20.1916 58.3332 20.0144 57.7938 19.8752C57.2543 19.7359 56.6893 19.6663 56.0985 19.6663C55.5848 19.6663 55.1545 19.7422 54.8077 19.8942C54.461 20.0461 54.1977 20.2549 54.0179 20.5208C53.8509 20.7866 53.7675 21.0968 53.7675 21.4513C53.7675 21.869 53.8638 22.2171 54.0564 22.4956C54.2491 22.7742 54.5573 23.0337 54.9811 23.2742C55.405 23.5021 55.9636 23.7553 56.6572 24.0338C57.4277 24.3249 58.0827 24.6414 58.6221 24.9832C59.1744 25.325 59.5918 25.7364 59.8743 26.2175C60.1569 26.6859 60.2982 27.2745 60.2982 27.9835Z" fill="#010101"/>
<path d="M66.7866 21.2234C68.0966 21.2234 69.0726 21.5082 69.7148 22.0779C70.3569 22.6349 70.678 23.5147 70.678 24.7174V31.6484H69.2332L68.8286 30.2242H68.7515C68.4562 30.5913 68.1479 30.8951 67.8268 31.1357C67.5186 31.3762 67.159 31.5534 66.748 31.6673C66.3499 31.7813 65.8619 31.8382 65.2839 31.8382C64.6675 31.8382 64.1088 31.7306 63.6079 31.5154C63.1199 31.2876 62.7346 30.9458 62.452 30.49C62.1695 30.0216 62.0282 29.4393 62.0282 28.743C62.0282 27.705 62.4263 26.9138 63.2226 26.3694C64.0317 25.8251 65.2582 25.5276 66.9021 25.4769L68.6745 25.42V24.8503C68.6745 24.0907 68.5011 23.559 68.1543 23.2552C67.8076 22.9514 67.3195 22.7995 66.6902 22.7995C66.1508 22.7995 65.6371 22.8754 65.1491 23.0273C64.661 23.1793 64.1987 23.3628 63.762 23.578L63.107 22.1159C63.5951 21.8627 64.1537 21.6538 64.783 21.4892C65.4252 21.312 66.093 21.2234 66.7866 21.2234ZM67.2682 26.7682C66.0866 26.8188 65.2647 27.015 64.8023 27.3568C64.3528 27.686 64.128 28.1544 64.128 28.762C64.128 29.2937 64.2886 29.6798 64.6097 29.9204C64.9436 30.1609 65.361 30.2811 65.8619 30.2811C66.671 30.2811 67.3388 30.0596 67.8654 29.6165C68.3919 29.1735 68.6552 28.5088 68.6552 27.6227V26.7302L67.2682 26.7682Z" fill="#010101"/>
<path d="M78.8889 22.9514H76.3267V31.6484H74.2847V22.9514H72.5316V22.0019L74.2847 21.3753V20.7297C74.2847 19.8562 74.4196 19.1599 74.6893 18.6409C74.9718 18.1092 75.3699 17.7231 75.8837 17.4825C76.3974 17.242 77.0203 17.1218 77.7523 17.1218C78.2018 17.1218 78.6128 17.1597 78.9853 17.2357C79.3577 17.3116 79.6724 17.3939 79.9292 17.4825L79.4091 19.0207C79.2036 18.9574 78.966 18.9004 78.6963 18.8498C78.4266 18.7865 78.144 18.7548 77.8486 18.7548C77.3349 18.7548 76.9496 18.9194 76.6928 19.2485C76.4488 19.5777 76.3267 20.0777 76.3267 20.7487V21.4133H78.8889V22.9514Z" fill="#010101"/>
<path d="M84.792 21.2234C85.7039 21.2234 86.4873 21.4133 87.1423 21.7931C87.7973 22.1602 88.2982 22.6919 88.6449 23.3881C89.0045 24.0844 89.1843 24.9073 89.1843 25.8567V26.9581H82.2106C82.2363 28.0088 82.5124 28.8127 83.0389 29.3697C83.5783 29.9267 84.3297 30.2052 85.2929 30.2052C85.9607 30.2052 86.5515 30.1482 87.0652 30.0343C87.5918 29.9077 88.1312 29.7241 88.6835 29.4836V31.1546C88.1697 31.3825 87.6432 31.5534 87.1038 31.6673C86.5772 31.7813 85.9479 31.8382 85.2158 31.8382C84.2141 31.8382 83.3279 31.642 82.5573 31.2496C81.7868 30.8571 81.1831 30.2748 80.7465 29.5026C80.3226 28.7177 80.1107 27.7556 80.1107 26.6163C80.1107 25.4643 80.3034 24.4895 80.6887 23.692C81.0868 22.8944 81.6326 22.2868 82.3262 21.869C83.0325 21.4386 83.8545 21.2234 84.792 21.2234ZM84.792 22.7805C84.06 22.7805 83.4692 23.0147 83.0197 23.4831C82.583 23.9515 82.3262 24.6161 82.2491 25.4769H87.1423C87.1423 24.9452 87.0588 24.4768 86.8919 24.0717C86.7249 23.6666 86.468 23.3502 86.1213 23.1223C85.7745 22.8944 85.3314 22.7805 84.792 22.7805Z" fill="#010101"/>
<path d="M104.866 27.9835C104.866 28.7937 104.667 29.4836 104.269 30.0533C103.871 30.6229 103.299 31.066 102.555 31.3825C101.81 31.6863 100.924 31.8382 99.8961 31.8382C99.3952 31.8382 98.9136 31.8066 98.4512 31.7433C97.9889 31.6927 97.5586 31.6167 97.1605 31.5154C96.7624 31.4142 96.4092 31.2876 96.1009 31.1357V29.1988C96.6147 29.4266 97.2183 29.6355 97.9118 29.8254C98.6053 30.0026 99.3117 30.0913 100.031 30.0913C100.647 30.0913 101.161 30.009 101.572 29.8444C101.983 29.6798 102.291 29.452 102.497 29.1608C102.702 28.8696 102.805 28.5278 102.805 28.1354C102.805 27.7176 102.696 27.3695 102.478 27.091C102.272 26.7998 101.945 26.534 101.495 26.2935C101.058 26.0403 100.468 25.7744 99.7227 25.4959C99.209 25.306 98.7402 25.0971 98.3164 24.8693C97.9054 24.6287 97.5394 24.3502 97.2183 24.0338C96.9101 23.7173 96.6725 23.3502 96.5055 22.9324C96.3385 22.5146 96.2551 22.0273 96.2551 21.4702C96.2551 20.7233 96.4413 20.084 96.8137 19.5524C97.199 19.0207 97.7256 18.6156 98.3934 18.3371C99.0613 18.0459 99.8383 17.9003 100.724 17.9003C101.469 17.9003 102.156 17.9763 102.786 18.1282C103.428 18.2674 104.038 18.4636 104.616 18.7168L103.961 20.4069C103.434 20.1916 102.901 20.0144 102.362 19.8752C101.823 19.7359 101.257 19.6663 100.667 19.6663C100.153 19.6663 99.7227 19.7422 99.3759 19.8942C99.0292 20.0461 98.7659 20.2549 98.5861 20.5208C98.4191 20.7866 98.3356 21.0968 98.3356 21.4513C98.3356 21.869 98.432 22.2171 98.6246 22.4956C98.8172 22.7742 99.1255 23.0337 99.5493 23.2742C99.9731 23.5021 100.532 23.7553 101.225 24.0338C101.996 24.3249 102.651 24.6414 103.19 24.9832C103.743 25.325 104.16 25.7364 104.443 26.2175C104.725 26.6859 104.866 27.2745 104.866 27.9835Z" fill="#010101"/>
<path d="M109.37 21.4133V31.6484H107.328V21.4133H109.37ZM108.369 17.5205C108.677 17.5205 108.947 17.6091 109.178 17.7864C109.409 17.9636 109.525 18.2611 109.525 18.6789C109.525 19.084 109.409 19.3815 109.178 19.5713C108.947 19.7486 108.677 19.8372 108.369 19.8372C108.035 19.8372 107.752 19.7486 107.521 19.5713C107.303 19.3815 107.194 19.084 107.194 18.6789C107.194 18.2611 107.303 17.9636 107.521 17.7864C107.752 17.6091 108.035 17.5205 108.369 17.5205Z" fill="#010101"/>
<path d="M116.141 31.8382C114.895 31.8382 113.887 31.3952 113.117 30.509C112.359 29.6229 111.98 28.3063 111.98 26.5593C111.98 24.7997 112.365 23.4704 113.136 22.5716C113.907 21.6728 114.921 21.2234 116.18 21.2234C116.706 21.2234 117.162 21.293 117.548 21.4323C117.946 21.5589 118.286 21.7361 118.569 21.964C118.864 22.1918 119.114 22.445 119.32 22.7235H119.435C119.41 22.5463 119.378 22.2931 119.339 21.964C119.301 21.6222 119.281 21.3183 119.281 21.0525V17.2167H121.323V31.6484H119.724L119.378 30.2811H119.281C119.089 30.5723 118.845 30.8382 118.549 31.0787C118.267 31.3066 117.926 31.4901 117.528 31.6294C117.13 31.7686 116.668 31.8382 116.141 31.8382ZM116.623 30.1862C117.625 30.1862 118.331 29.914 118.742 29.3697C119.153 28.8127 119.358 27.9835 119.358 26.8821V26.5783C119.358 25.3756 119.159 24.4578 118.761 23.8249C118.376 23.1919 117.657 22.8754 116.604 22.8754C115.769 22.8754 115.139 23.2109 114.716 23.8818C114.292 24.5401 114.08 25.4453 114.08 26.5973C114.08 27.7493 114.292 28.6354 114.716 29.2557C115.139 29.876 115.775 30.1862 116.623 30.1862Z" fill="#010101"/>
<path d="M128.608 21.2234C129.52 21.2234 130.303 21.4133 130.958 21.7931C131.613 22.1602 132.114 22.6919 132.461 23.3881C132.82 24.0844 133 24.9073 133 25.8567V26.9581H126.026C126.052 28.0088 126.328 28.8127 126.855 29.3697C127.394 29.9267 128.145 30.2052 129.109 30.2052C129.776 30.2052 130.367 30.1482 130.881 30.0343C131.407 29.9077 131.947 29.7241 132.499 29.4836V31.1546C131.985 31.3825 131.459 31.5534 130.919 31.6673C130.393 31.7813 129.764 31.8382 129.031 31.8382C128.03 31.8382 127.144 31.642 126.373 31.2496C125.602 30.8571 124.999 30.2748 124.562 29.5026C124.138 28.7177 123.926 27.7556 123.926 26.6163C123.926 25.4643 124.119 24.4895 124.504 23.692C124.902 22.8944 125.448 22.2868 126.142 21.869C126.848 21.4386 127.67 21.2234 128.608 21.2234ZM128.608 22.7805C127.876 22.7805 127.285 23.0147 126.835 23.4831C126.399 23.9515 126.142 24.6161 126.065 25.4769H130.958C130.958 24.9452 130.874 24.4768 130.708 24.0717C130.541 23.6666 130.284 23.3502 129.937 23.1223C129.59 22.8944 129.147 22.7805 128.608 22.7805Z" fill="#010101"/>
</svg>
