<svg width="104" height="104" viewBox="0 0 104 104" fill="none" xmlns="http://www.w3.org/2000/svg">
<circle cx="52" cy="52" r="52" fill="#286CEB"/>
<path d="M52 41C55.6775 40.9878 59.2838 42.0136 62.4042 43.9595C65.5247 45.9053 68.0328 48.6923 69.64 52C66.34 58.74 59.6 63 52 63C44.4 63 37.66 58.74 34.36 52C35.9672 48.6923 38.4753 45.9053 41.5958 43.9595C44.7163 42.0136 48.3225 40.9878 52 41ZM52 37C42 37 33.46 43.22 30 52C33.46 60.78 42 67 52 67C62 67 70.54 60.78 74 52C70.54 43.22 62 37 52 37ZM52 47C53.3261 47 54.5979 47.5268 55.5355 48.4645C56.4732 49.4021 57 50.6739 57 52C57 53.3261 56.4732 54.5979 55.5355 55.5355C54.5979 56.4732 53.3261 57 52 57C50.6739 57 49.4022 56.4732 48.4645 55.5355C47.5268 54.5979 47 53.3261 47 52C47 50.6739 47.5268 49.4021 48.4645 48.4645C49.4022 47.5268 50.6739 47 52 47ZM52 43C47.04 43 43 47.04 43 52C43 56.96 47.04 61 52 61C56.96 61 61 56.96 61 52C61 47.04 56.96 43 52 43Z" fill="white"/>
</svg>
